<?xml version="1.0" encoding="UTF-8" standalone="no"?>
<svg
   id="svg"
   width="666.09399"
   height="242.362"
   version="1.1"
   sodipodi:docname="3.ideogram.svg"
   inkscape:version="1.3.2 (1:1.3.2+202311252150+091e20ef0f)"
   xmlns:inkscape="http://www.inkscape.org/namespaces/inkscape"
   xmlns:sodipodi="http://sodipodi.sourceforge.net/DTD/sodipodi-0.dtd"
   xmlns="http://www.w3.org/2000/svg"
   xmlns:svg="http://www.w3.org/2000/svg">
  <defs
     id="defs58" />
  <sodipodi:namedview
     id="namedview58"
     pagecolor="#ffffff"
     bordercolor="#000000"
     borderopacity="0.25"
     inkscape:showpageshadow="2"
     inkscape:pageopacity="0.0"
     inkscape:pagecheckerboard="0"
     inkscape:deskcolor="#d1d1d1"
     inkscape:zoom="1.0965791"
     inkscape:cx="364.77077"
     inkscape:cy="213.3909"
     inkscape:window-width="1848"
     inkscape:window-height="1016"
     inkscape:window-x="72"
     inkscape:window-y="27"
     inkscape:window-maximized="1"
     inkscape:current-layer="svg" />
  <text
     x="5.8829842"
     y="30.444954"
     font-size="12px"
     fill="#252525"
     id="text1">NymPol_chrZ.v2</text>
  <text
     x="5.8829842"
     y="225.32683"
     font-size="12px"
     fill="#252525"
     id="text2">NymPol_chrW.v2</text>
  <text
     x="362.53888"
     y="12.185111"
     font-size="9px"
     fill="#000000"
     id="text3">NymPol_chrZ</text>
  <text
     x="152.40327"
     y="237.1851"
     font-size="9px"
     fill="#000000"
     id="text4">NymPol_chrW</text>
  <path
     d="m 614.97317,33.444954 q 0,53.1496 -248.52001,88.582676 -248.52002,35.43308 -248.52002,88.58268 h 0.067 q 0,-53.14961 248.5476,-88.58268 248.5476,-35.433066 248.5476,-88.582676 z"
     stroke="#cccccc"
     fill="#cccccc"
     style="stroke-width:0.5px"
     id="path5" />
  <path
     d="m 115.23163,33.444954 q 0,53.1496 1.42632,88.582676 1.42633,35.43308 1.42633,88.58268 h 0.20729 q 0,-53.14961 -1.41189,-88.58268 -1.4119,-35.433066 -1.4119,-88.582676 z"
     stroke="#cccccc"
     fill="#cccccc"
     style="stroke-width:0.5px"
     id="path6" />
  <path
     d="m 113.46351,33.444954 q 0,53.1496 2.93305,88.582676 2.93306,35.43308 2.93306,88.58268 h 0.14694 q 0,-53.14961 -2.9652,-88.58268 -2.96519,-35.433066 -2.96519,-88.582676 z"
     stroke="#cccccc"
     fill="#cccccc"
     style="stroke-width:0.5px"
     id="path7" />
  <path
     d="m 411.11203,33.444954 q 0,53.1496 -145.25629,88.582676 -145.2563,35.43308 -145.2563,88.58268 h 0.0546 q 0,-53.14961 145.25647,-88.58268 145.25647,-35.433066 145.25647,-88.582676 z"
     stroke="#cccccc"
     fill="#cccccc"
     style="stroke-width:0.5px"
     id="path8" />
  <path
     d="m 172.6016,33.444954 q 0,53.1496 -22.43829,88.582676 -22.43828,35.43308 -22.43828,88.58268 h 0.0177 q 0,-53.14961 22.45151,-88.58268 22.45151,-35.433066 22.45151,-88.582676 z"
     stroke="#cccccc"
     fill="#cccccc"
     style="stroke-width:0.5px"
     id="path9" />
  <path
     d="m 202.33625,33.444954 q 0,53.1496 -35.96072,88.582676 -35.96073,35.43308 -35.96073,88.58268 h 0.0238 q 0,-53.14961 35.95325,-88.58268 35.95326,-35.433066 35.95326,-88.582676 z"
     stroke="#cccccc"
     fill="#cccccc"
     style="stroke-width:0.5px"
     id="path10" />
  <path
     d="m 243.47505,33.444954 q 0,53.1496 -54.92577,88.582676 -54.92577,35.43308 -54.92577,88.58268 h 0.0147 q 0,-53.14961 54.93301,-88.58268 54.933,-35.433066 54.933,-88.582676 z"
     stroke="#cccccc"
     fill="#cccccc"
     style="stroke-width:0.5px"
     id="path11" />
  <path
     d="m 594.94512,33.444954 q 0,53.1496 -225.73177,88.582676 -225.73177,35.43308 -225.73177,88.58268 h 0.0885 q 0,-53.14961 225.6932,-88.58268 225.6932,-35.433066 225.6932,-88.582676 z"
     stroke="#cccccc"
     fill="#cccccc"
     style="stroke-width:0.5px"
     id="path12" />
  <path
     d="m 643.78436,33.444954 q 0,53.1496 -248.73006,88.582676 -248.73006,35.43308 -248.73006,88.58268 h 0.0245 q 0,-53.14961 248.72678,-88.58268 Q 643.8023,86.594564 643.8023,33.444954 Z"
     stroke="#cccccc"
     fill="#cccccc"
     style="stroke-width:0.5px"
     id="path13" />
  <path
     d="m 643.74159,33.444954 q 0,53.1496 -248.66688,88.582676 -248.66688,35.43308 -248.66688,88.58268 h 0.0324 q 0,-53.14961 248.67522,-88.58268 248.67522,-35.433066 248.67522,-88.582676 z"
     stroke="#cccccc"
     fill="#cccccc"
     style="stroke-width:0.5px"
     id="path14" />
  <path
     d="m 488.94643,33.444954 q 0,53.1496 -170.94053,88.582676 -170.94052,35.43308 -170.94052,88.58268 h 0.0301 q 0,-53.14961 170.96821,-88.58268 Q 489.0319,86.594564 489.0319,33.444954 Z"
     stroke="#cccccc"
     fill="#cccccc"
     style="stroke-width:0.5px"
     id="path15" />
  <path
     d="m 605.60952,33.444954 q 0,53.1496 -229.24794,88.582676 -229.24794,35.43308 -229.24794,88.58268 h 0.0444 q 0,-53.14961 229.32869,-88.58268 229.32869,-35.433066 229.32869,-88.582676 z"
     stroke="#cccccc"
     fill="#cccccc"
     style="stroke-width:0.5px"
     id="path16" />
  <path
     d="m 557.17853,33.444954 q 0,53.1496 -204.71983,88.582676 -204.71983,35.43308 -204.71983,88.58268 h 0.0341 q 0,-53.14961 204.70925,-88.58268 204.70924,-35.433066 204.70924,-88.582676 z"
     stroke="#cccccc"
     fill="#cccccc"
     style="stroke-width:0.5px"
     id="path17" />
  <path
     d="m 314.5527,33.444954 q 0,53.1496 -83.38916,88.582676 -83.38917,35.43308 -83.38917,88.58268 h 0.0282 q 0,-53.14961 83.37966,-88.58268 83.37966,-35.433066 83.37966,-88.582676 z"
     stroke="#cccccc"
     fill="#cccccc"
     style="stroke-width:0.5px"
     id="path18" />
  <path
     d="m 273.47638,33.444954 q 0,53.1496 -61.36971,88.582676 -61.36971,35.43308 -61.36971,88.58268 h 0.0163 q 0,-53.14961 61.3783,-88.58268 61.3783,-35.433066 61.3783,-88.582676 z"
     stroke="#cccccc"
     fill="#cccccc"
     style="stroke-width:0.5px"
     id="path19" />
  <path
     d="m 111.97665,33.444954 q 0,53.1496 20.61372,88.582676 20.61372,35.43308 20.61372,88.58268 h 0.0603 q 0,-53.14961 -20.61105,-88.58268 -20.61106,-35.433066 -20.61106,-88.582676 z"
     stroke="#cccccc"
     fill="#cccccc"
     style="stroke-width:0.5px"
     id="path20" />
  <path
     d="m 592.2383,33.444954 q 0,53.1496 -217.99674,88.582676 -217.99673,35.43308 -217.99673,88.58268 h 0.14658 q 0,-53.14961 217.94043,-88.58268 217.94042,-35.433066 217.94042,-88.582676 z"
     stroke="#cccccc"
     fill="#cccccc"
     style="stroke-width:0.5px"
     id="path21" />
  <path
     d="m 111.6885,33.444954 q 0,53.1496 22.50896,88.582676 22.50896,35.43308 22.50896,88.58268 h 0.0188 q 0,-53.14961 -22.48323,-88.58268 -22.48323,-35.433066 -22.48323,-88.582676 z"
     stroke="#cccccc"
     fill="#cccccc"
     style="stroke-width:0.5px"
     id="path22" />
  <path
     d="m 176.11723,33.444954 q 0,53.1496 -8.87805,88.582676 -8.87806,35.43308 -8.87806,88.58268 h 0.0201 q 0,-53.14961 8.88013,-88.58268 8.88012,-35.433066 8.88012,-88.582676 z"
     stroke="#cccccc"
     fill="#cccccc"
     style="stroke-width:0.5px"
     id="path23" />
  <path
     d="m 120.3275,33.444954 q 0,53.1496 19.02715,88.582676 19.02715,35.43308 19.02715,88.58268 h 0.0361 q 0,-53.14961 -19.03391,-88.58268 -19.03391,-35.433066 -19.03391,-88.582676 z"
     stroke="#cccccc"
     fill="#cccccc"
     style="stroke-width:0.5px"
     id="path24" />
  <path
     d="m 477.60869,33.444954 q 0,53.1496 -159.19275,88.582676 -159.19275,35.43308 -159.19275,88.58268 h 0.0146 q 0,-53.14961 159.19365,-88.58268 159.19365,-35.433066 159.19365,-88.582676 z"
     stroke="#cccccc"
     fill="#cccccc"
     style="stroke-width:0.5px"
     id="path25" />
  <path
     d="m 397.39642,33.444954 q 0,53.1496 -115.81027,88.582676 -115.81026,35.43308 -115.81026,88.58268 h 0.0501 q 0,-53.14961 115.81042,-88.58268 115.81043,-35.433066 115.81043,-88.582676 z"
     stroke="#cccccc"
     fill="#cccccc"
     style="stroke-width:0.5px"
     id="path26" />
  <path
     d="m 536.15796,33.444954 q 0,53.1496 -183.33174,88.582676 -183.33173,35.43308 -183.33173,88.58268 h 0.0625 q 0,-53.14961 183.32789,-88.58268 183.3279,-35.433066 183.3279,-88.582676 z"
     stroke="#cccccc"
     fill="#cccccc"
     style="stroke-width:0.5px"
     id="path27" />
  <path
     d="m 326.30801,33.444954 q 0,53.1496 -77.08742,88.582676 -77.08742,35.43308 -77.08742,88.58268 h 0.12897 q 0,-53.14961 77.07333,-88.58268 77.07332,-35.433066 77.07332,-88.582676 z"
     stroke="#cccccc"
     fill="#cccccc"
     style="stroke-width:0.5px"
     id="path28" />
  <path
     d="m 604.98951,33.444954 q 0,53.1496 -214.54588,88.582676 -214.54589,35.43308 -214.54589,88.58268 h 0.0233 q 0,-53.14961 214.65578,-88.58268 214.65577,-35.433066 214.65577,-88.582676 z"
     stroke="#cccccc"
     fill="#cccccc"
     style="stroke-width:0.5px"
     id="path29" />
  <path
     d="m 495.83468,33.444954 q 0,53.1496 -159.39331,88.582676 -159.3933,35.43308 -159.3933,88.58268 h 0.04 q 0,-53.14961 159.39971,-88.58268 159.39971,-35.433066 159.39971,-88.582676 z"
     stroke="#cccccc"
     fill="#cccccc"
     style="stroke-width:0.5px"
     id="path30" />
  <path
     d="m 495.79985,33.444954 q 0,53.1496 -159.34051,88.582676 -159.34051,35.43308 -159.34051,88.58268 h 0.0152 q 0,-53.14961 159.34056,-88.58268 159.34056,-35.433066 159.34056,-88.582676 z"
     stroke="#cccccc"
     fill="#cccccc"
     style="stroke-width:0.5px"
     id="path31" />
  <path
     d="m 651.4037,33.444954 q 0,53.1496 -236.29556,88.582676 -236.29557,35.43308 -236.29557,88.58268 h 0.0271 q 0,-53.14961 236.29921,-88.58268 236.2992,-35.433066 236.2992,-88.582676 z"
     stroke="#cccccc"
     fill="#cccccc"
     style="stroke-width:0.5px"
     id="path32" />
  <path
     d="m 564.29261,33.444954 q 0,53.1496 -192.34543,88.582676 -192.34542,35.43308 -192.34542,88.58268 h 0.10769 q 0,-53.14961 192.30937,-88.58268 192.30937,-35.433066 192.30937,-88.582676 z"
     stroke="#cccccc"
     fill="#cccccc"
     style="stroke-width:0.5px"
     id="path33" />
  <path
     d="m 216.32607,33.444954 q 0,53.1496 -18.28566,88.582676 -18.28567,35.43308 -18.28567,88.58268 h 0.0296 q 0,-53.14961 18.28576,-88.58268 18.28576,-35.433066 18.28576,-88.582676 z"
     stroke="#cccccc"
     fill="#cccccc"
     style="stroke-width:0.5px"
     id="path34" />
  <path
     d="m 644.98289,33.444954 q 0,53.1496 -232.17321,88.582676 -232.1732,35.43308 -232.1732,88.58268 h 0.0196 q 0,-53.14961 232.25494,-88.58268 232.25494,-35.433066 232.25494,-88.582676 z"
     stroke="#cccccc"
     fill="#cccccc"
     style="stroke-width:0.5px"
     id="path35" />
  <path
     d="m 314.30244,33.444954 q 0,53.1496 -66.71455,88.582676 -66.71454,35.43308 -66.71454,88.58268 h 0.0106 q 0,-53.14961 66.71292,-88.58268 66.71292,-35.433066 66.71292,-88.582676 z"
     stroke="#cccccc"
     fill="#cccccc"
     style="stroke-width:0.5px"
     id="path36" />
  <path
     d="m 374.08318,33.444954 q 0,53.1496 -96.39036,88.582676 -96.39035,35.43308 -96.39035,88.58268 h 0.0926 q 0,-53.14961 96.54648,-88.58268 96.54648,-35.433066 96.54648,-88.582676 z"
     stroke="#cccccc"
     fill="#cccccc"
     style="stroke-width:0.5px"
     id="path37" />
  <path
     d="m 285.78808,33.444954 q 0,53.1496 -51.85379,88.582676 -51.85379,35.43308 -51.85379,88.58268 h 0.0583 q 0,-53.14961 51.85397,-88.58268 51.85398,-35.433066 51.85398,-88.582676 z"
     stroke="#cccccc"
     fill="#cccccc"
     style="stroke-width:0.5px"
     id="path38" />
  <path
     d="m 543.03758,33.444954 q 0,53.1496 -180.44853,88.582676 -180.44853,35.43308 -180.44853,88.58268 h 0.0689 q 0,-53.14961 180.43246,-88.58268 180.43246,-35.433066 180.43246,-88.582676 z"
     stroke="#cccccc"
     fill="#cccccc"
     style="stroke-width:0.5px"
     id="path39" />
  <path
     d="m 183.97225,33.444954 q 0,53.1496 1.08322,88.582676 1.08322,35.43308 1.08322,88.58268 h 0.10528 q 0,-53.14961 -1.12957,-88.58268 -1.12957,-35.433066 -1.12957,-88.582676 z"
     stroke="#cccccc"
     fill="#cccccc"
     style="stroke-width:0.5px"
     id="path40" />
  <path
     d="m 458.86438,33.444954 q 0,53.1496 -135.65129,88.582676 -135.65129,35.43308 -135.65129,88.58268 h 0.0401 q 0,-53.14961 135.63841,-88.58268 135.6384,-35.433066 135.6384,-88.582676 z"
     stroke="#cccccc"
     fill="#cccccc"
     style="stroke-width:0.5px"
     id="path41" />
  <path
     d="m 200.49631,33.444954 q 0,53.1496 -4.91375,88.582676 -4.91376,35.43308 -4.91376,88.58268 h 0.0167 q 0,-53.14961 4.92118,-88.58268 4.92118,-35.433066 4.92118,-88.582676 z"
     stroke="#cccccc"
     fill="#cccccc"
     style="stroke-width:0.5px"
     id="path42" />
  <path
     d="m 477.41623,33.444954 q 0,53.1496 -141.58363,88.582676 -141.58363,35.43308 -141.58363,88.58268 h 0.0189 q 0,-53.14961 141.58414,-88.58268 141.58414,-35.433066 141.58414,-88.582676 z"
     stroke="#cccccc"
     fill="#cccccc"
     style="stroke-width:0.5px"
     id="path43" />
  <path
     d="m 492.89691,33.444954 q 0,53.1496 -147.5665,88.582676 -147.5665,35.43308 -147.5665,88.58268 h 0.03 q 0,-53.14961 147.56561,-88.58268 147.56561,-35.433066 147.56561,-88.582676 z"
     stroke="#cccccc"
     fill="#cccccc"
     style="stroke-width:0.5px"
     id="path44" />
  <path
     d="m 397.75172,33.444954 q 0,53.1496 -99.22253,88.582676 -99.22252,35.43308 -99.22252,88.58268 h 0.0172 q 0,-53.14961 99.2193,-88.58268 99.2193,-35.433066 99.2193,-88.582676 z"
     stroke="#cccccc"
     fill="#cccccc"
     style="stroke-width:0.5px"
     id="path45" />
  <path
     d="m 245.84963,33.444954 q 0,53.1496 -21.38221,88.582676 -21.38222,35.43308 -21.38222,88.58268 h 0.032 q 0,-53.14961 21.38221,-88.58268 21.38222,-35.433066 21.38222,-88.582676 z"
     stroke="#cccccc"
     fill="#cccccc"
     style="stroke-width:0.5px"
     id="path46" />
  <path
     d="m 442.06282,33.444954 q 0,53.1496 -114.99666,88.582676 -114.99666,35.43308 -114.99666,88.58268 h 0.0689 q 0,-53.14961 115.10183,-88.58268 115.10183,-35.433066 115.10183,-88.582676 z"
     stroke="#cccccc"
     fill="#cccccc"
     style="stroke-width:0.5px"
     id="path47" />
  <path
     d="m 278.62195,33.444954 q 0,53.1496 -31.71276,88.582676 -31.71275,35.43308 -31.71275,88.58268 h 0.0283 q 0,-53.14961 31.71304,-88.58268 31.71304,-35.433066 31.71304,-88.582676 z"
     stroke="#cccccc"
     fill="#cccccc"
     style="stroke-width:0.5px"
     id="path48" />
  <path
     d="m 212.62693,33.444954 q 0,53.1496 3.6367,88.582676 3.6367,35.43308 3.6367,88.58268 h 0.0899 q 0,-53.14961 -3.6592,-88.58268 -3.6592,-35.433066 -3.6592,-88.582676 z"
     stroke="#cccccc"
     fill="#cccccc"
     style="stroke-width:0.5px"
     id="path49" />
  <path
     d="m 377.10699,33.444954 q 0,53.1496 -77.7006,88.582676 -77.70061,35.43308 -77.70061,88.58268 h 0.0284 q 0,-53.14961 77.70666,-88.58268 77.70666,-35.433066 77.70666,-88.582676 z"
     stroke="#cccccc"
     fill="#cccccc"
     style="stroke-width:0.5px"
     id="path50" />
  <path
     d="m 441.98456,33.444954 q 0,53.1496 -110.03722,88.582676 -110.03721,35.43308 -110.03721,88.58268 h 0.0222 q 0,-53.14961 110.03729,-88.58268 110.0373,-35.433066 110.0373,-88.582676 z"
     stroke="#cccccc"
     fill="#cccccc"
     style="stroke-width:0.5px"
     id="path51" />
  <path
     d="m 554.55844,33.444954 q 0,53.1496 -158.90532,88.582676 -158.90532,35.43308 -158.90532,88.58268 h 0.0536 q 0,-53.14961 158.91726,-88.58268 158.91726,-35.433066 158.91726,-88.582676 z"
     stroke="#cccccc"
     fill="#cccccc"
     style="stroke-width:0.5px"
     id="path52" />
  <path
     d="m 633.9484,33.444954 q 0,53.1496 -198.4146,88.582676 -198.4146,35.43308 -198.4146,88.58268 h 0.0332 q 0,-53.14961 198.4148,-88.58268 198.41479,-35.433066 198.41479,-88.582676 z"
     stroke="#cccccc"
     fill="#cccccc"
     style="stroke-width:0.5px"
     id="path53" />
  <rect
     x="111.03259"
     y="15.728416"
     rx="2"
     ry="2"
     width="549.21259"
     height="17.716539"
     style="fill:#f7f7f7;stroke:#000000;stroke-width:0.5"
     id="rect53" />
  <rect
     x="111.03259"
     y="210.61031"
     rx="2"
     ry="2"
     width="128.94138"
     height="17.716539"
     style="fill:#f7f7f7;stroke:#000000;stroke-width:0.5"
     id="rect54" />
  <rect
     x="111.03259"
     y="18.728416"
     rx="2"
     ry="2"
     width="549.21259"
     height="11.71654"
     style="fill:#969696;stroke:#969696;stroke-width:0.5"
     id="rect56" />
  <rect
     x="111.03259"
     y="213.61031"
     rx="2"
     ry="2"
     width="128.94138"
     height="11.71654"
     style="fill:#969696;stroke:#969696;stroke-width:0.5"
     id="rect57" />
</svg>
