<?xml version="1.0" encoding="UTF-8" standalone="no"?>
<svg
   id="svg"
   width="744.0945"
   height="1052.362"
   version="1.1"
   sodipodi:docname="NymPol_chrZ.v2NymPol_chrW.v2.svg"
   inkscape:version="1.3.2 (1:1.3.2+202311252150+091e20ef0f)"
   xmlns:inkscape="http://www.inkscape.org/namespaces/inkscape"
   xmlns:sodipodi="http://sodipodi.sourceforge.net/DTD/sodipodi-0.dtd"
   xmlns="http://www.w3.org/2000/svg"
   xmlns:svg="http://www.w3.org/2000/svg">
  <defs
     id="defs58" />
  <sodipodi:namedview
     id="namedview58"
     pagecolor="#ffffff"
     bordercolor="#000000"
     borderopacity="0.25"
     inkscape:showpageshadow="2"
     inkscape:pageopacity="0.0"
     inkscape:pagecheckerboard="0"
     inkscape:deskcolor="#d1d1d1"
     inkscape:zoom="1.0965791"
     inkscape:cx="372.06617"
     inkscape:cy="214.30282"
     inkscape:window-width="1848"
     inkscape:window-height="1016"
     inkscape:window-x="72"
     inkscape:window-y="27"
     inkscape:window-maximized="1"
     inkscape:current-layer="svg" />
  <text
     x="18.866142"
     y="103.29921"
     font-size="12px"
     fill="#252525"
     id="text1">NymPol_chrZ.v2</text>
  <text
     x="18.866142"
     y="298.18109"
     font-size="12px"
     fill="#252525"
     id="text2">NymPol_chrW.v2</text>
  <text
     x="375.5220375"
     y="85.039368"
     font-size="9"
     fill="black"
     id="text3">NymPol_chrZ</text>
  <text
     x="165.386429255512"
     y="310.0393625"
     font-size="9"
     fill="black"
     id="text4">NymPol_chrW</text>
  <path
     d="M 627.956325473996 106.29921 Q 627.956325473996 159.448815 379.436315068786 194.881885 T 130.916304663576 283.46456 L 130.983317722716 283.46456 Q 130.983317722716 230.314955 379.530920331085 194.881885 T 628.078522939453 106.29921 Z"
     stroke="#cccccc"
     fill="#cccccc"
     style="stroke-width: 0.5px;"
     id="path5" />
  <path
     d="M 128.21478535713 106.29921 Q 128.21478535713 159.448815 129.641113244672 194.881885 T 131.067441132214 283.46456 L 131.274729307157 283.46456 Q 131.274729307157 230.314955 129.862836623213 194.881885 T 128.450943939269 106.29921 Z"
     stroke="#cccccc"
     fill="#cccccc"
     style="stroke-width: 0.5px;"
     id="path6" />
  <path
     d="M 126.446665902899 106.29921 Q 126.446665902899 159.448815 129.379721484923 194.881885 T 132.312777066946 283.46456 L 132.459717780105 283.46456 Q 132.459717780105 230.314955 129.494523337171 194.881885 T 126.529328894238 106.29921 Z"
     stroke="#cccccc"
     fill="#cccccc"
     style="stroke-width: 0.5px;"
     id="path7" />
  <path
     d="M 424.095192362648 106.29921 Q 424.095192362648 159.448815 278.838897741593 194.881885 T 133.582603120538 283.46456 L 133.637237213159 283.46456 Q 133.637237213159 230.314955 278.893709217631 194.881885 T 424.150181222104 106.29921 Z"
     stroke="#cccccc"
     fill="#cccccc"
     style="stroke-width: 0.5px;"
     id="path8" />
  <path
     d="M 185.584758268418 106.29921 Q 185.584758268418 159.448815 163.146472238792 194.881885 T 140.708186209167 283.46456 L 140.725861945014 283.46456 Q 140.725861945014 230.314955 163.177368546253 194.881885 T 185.628875147491 106.29921 Z"
     stroke="#cccccc"
     fill="#cccccc"
     style="stroke-width: 0.5px;"
     id="path9" />
  <path
     d="M 215.319414962267 106.29921 Q 215.319414962267 159.448815 179.3586890024 194.881885 T 143.397963042533 283.46456 L 143.421798504509 283.46456 Q 143.421798504509 230.314955 179.375054361726 194.881885 T 215.328310218943 106.29921 Z"
     stroke="#cccccc"
     fill="#cccccc"
     style="stroke-width: 0.5px;"
     id="path10" />
  <path
     d="M 256.45821002062 106.29921 Q 256.45821002062 159.448815 201.532442252511 194.881885 T 146.606674484401 283.46456 L 146.621404264274 283.46456 Q 146.621404264274 230.314955 201.554407942548 194.881885 T 256.487411620822 106.29921 Z"
     stroke="#cccccc"
     fill="#cccccc"
     style="stroke-width: 0.5px;"
     id="path11" />
  <path
     d="M 607.92828068701 106.29921 Q 607.92828068701 159.448815 382.196508288236 194.881885 T 156.464735889462 283.46456 L 156.553293111488 283.46456 Q 156.553293111488 230.314955 382.246492442672 194.881885 T 607.939691773857 106.29921 Z"
     stroke="#cccccc"
     fill="#cccccc"
     style="stroke-width: 0.5px;"
     id="path12" />
  <path
     d="M 656.767522743227 106.29921 Q 656.767522743227 159.448815 408.037463802713 194.881885 T 159.307404862199 283.46456 L 159.331865223928 283.46456 Q 159.331865223928 230.314955 408.058649140972 194.881885 T 656.785433058017 106.29921 Z"
     stroke="#cccccc"
     fill="#cccccc"
     style="stroke-width: 0.5px;"
     id="path13" />
  <path
     d="M 656.724753630317 106.29921 Q 656.724753630317 159.448815 408.057873136827 194.881885 T 159.390992643338 283.46456 L 159.423368401928 283.46456 Q 159.423368401928 230.314955 408.098590360291 194.881885 T 656.773812318655 106.29921 Z"
     stroke="#cccccc"
     fill="#cccccc"
     style="stroke-width: 0.5px;"
     id="path14" />
  <path
     d="M 501.929586794185 106.29921 Q 501.929586794185 159.448815 330.989061381244 194.881885 T 160.048535968303 283.46456 L 160.078620427801 283.46456 Q 160.078620427801 230.314955 331.046827798364 194.881885 T 502.015035168927 106.29921 Z"
     stroke="#cccccc"
     fill="#cccccc"
     style="stroke-width: 0.5px;"
     id="path15" />
  <path
     d="M 618.592675130111 106.29921 Q 618.592675130111 159.448815 389.344738582494 194.881885 T 160.096802034877 283.46456 L 160.141169917283 283.46456 Q 160.141169917283 230.314955 389.469861908201 194.881885 T 618.798553899119 106.29921 Z"
     stroke="#cccccc"
     fill="#cccccc"
     style="stroke-width: 0.5px;"
     id="path16" />
  <path
     d="M 570.161686419885 106.29921 Q 570.161686419885 159.448815 365.441857767699 194.881885 T 160.722029115514 283.46456 L 160.756130787705 283.46456 Q 160.756130787705 230.314955 365.465377881378 194.881885 T 570.174624975051 106.29921 Z"
     stroke="#cccccc"
     fill="#cccccc"
     style="stroke-width: 0.5px;"
     id="path17" />
  <path
     d="M 327.535863321717 106.29921 Q 327.535863321717 159.448815 244.146696347291 194.881885 T 160.757529372865 283.46456 L 160.785709375976 283.46456 Q 160.785709375976 230.314955 244.165368753801 194.881885 T 327.545028131626 106.29921 Z"
     stroke="#cccccc"
     fill="#cccccc"
     style="stroke-width: 0.5px;"
     id="path18" />
  <path
     d="M 286.459544712614 106.29921 Q 286.459544712614 159.448815 225.089832148187 194.881885 T 163.720119583761 283.46456 L 163.736456248711 283.46456 Q 163.736456248711 230.314955 225.114757706624 194.881885 T 286.493059164537 106.29921 Z"
     stroke="#cccccc"
     fill="#cccccc"
     style="stroke-width: 0.5px;"
     id="path19" />
  <path
     d="M 124.959810271734 106.29921 Q 124.959810271734 159.448815 145.573531917146 194.881885 T 166.187253562559 283.46456 L 166.247601024343 283.46456 Q 166.247601024343 230.314955 145.63654621688 194.881885 T 125.025491409417 106.29921 Z"
     stroke="#cccccc"
     fill="#cccccc"
     style="stroke-width: 0.5px;"
     id="path20" />
  <path
     d="M 605.221457075338 106.29921 Q 605.221457075338 159.448815 387.224721537475 194.881885 T 169.227985999611 283.46456 L 169.374569627197 283.46456 Q 169.374569627197 230.314955 387.314995204923 194.881885 T 605.255420782649 106.29921 Z"
     stroke="#cccccc"
     fill="#cccccc"
     style="stroke-width: 0.5px;"
     id="path21" />
  <path
     d="M 124.671657866057 106.29921 Q 124.671657866057 159.448815 147.180618241311 194.881885 T 169.689578616566 283.46456 L 169.708414880525 283.46456 Q 169.708414880525 230.314955 147.225183119789 194.881885 T 124.741951359054 106.29921 Z"
     stroke="#cccccc"
     fill="#cccccc"
     style="stroke-width: 0.5px;"
     id="path22" />
  <path
     d="M 189.100391329763 106.29921 Q 189.100391329763 159.448815 180.222337366505 194.881885 T 171.344283403248 283.46456 L 171.364369466711 283.46456 Q 171.364369466711 230.314955 180.244495318526 194.881885 T 189.12462117034 106.29921 Z"
     stroke="#cccccc"
     fill="#cccccc"
     style="stroke-width: 0.5px;"
     id="path23" />
  <path
     d="M 133.310659269565 106.29921 Q 133.310659269565 159.448815 152.337811939449 194.881885 T 171.364964609333 283.46456 L 171.401030252173 283.46456 Q 171.401030252173 230.314955 152.367121071101 194.881885 T 133.333211890028 106.29921 Z"
     stroke="#cccccc"
     fill="#cccccc"
     style="stroke-width: 0.5px;"
     id="path24" />
  <path
     d="M 490.591848375984 106.29921 Q 490.591848375984 159.448815 331.399097932975 194.881885 T 172.206347489967 283.46456 L 172.220898727054 283.46456 Q 172.220898727054 230.314955 331.414549999575 194.881885 T 490.608201272096 106.29921 Z"
     stroke="#cccccc"
     fill="#cccccc"
     style="stroke-width: 0.5px;"
     id="path25" />
  <path
     d="M 410.379575127657 106.29921 Q 410.379575127657 159.448815 294.569310709572 194.881885 T 178.759046291487 283.46456 L 178.809127543056 283.46456 Q 178.809127543056 230.314955 294.619554562607 194.881885 T 410.429981582158 106.29921 Z"
     stroke="#cccccc"
     fill="#cccccc"
     style="stroke-width: 0.5px;"
     id="path26" />
  <path
     d="M 549.141116680011 106.29921 Q 549.141116680011 159.448815 365.809381427013 194.881885 T 182.477646174016 283.46456 L 182.540136149235 283.46456 Q 182.540136149235 230.314955 365.868030993273 194.881885 T 549.195925837311 106.29921 Z"
     stroke="#cccccc"
     fill="#cccccc"
     style="stroke-width: 0.5px;"
     id="path27" />
  <path
     d="M 339.291169647615 106.29921 Q 339.291169647615 159.448815 262.203749830486 194.881885 T 185.116330013357 283.46456 L 185.245297419358 283.46456 Q 185.245297419358 230.314955 262.318625012808 194.881885 T 339.391952606258 106.29921 Z"
     stroke="#cccccc"
     fill="#cccccc"
     style="stroke-width: 0.5px;"
     id="path28" />
  <path
     d="M 617.972672744712 106.29921 Q 617.972672744712 159.448815 403.42678870404 194.881885 T 188.880904663368 283.46456 L 188.904174739855 283.46456 Q 188.904174739855 230.314955 403.559947324659 194.881885 T 618.215719909463 106.29921 Z"
     stroke="#cccccc"
     fill="#cccccc"
     style="stroke-width: 0.5px;"
     id="path29" />
  <path
     d="M 508.817839951787 106.29921 Q 508.817839951787 159.448815 349.424533015212 194.881885 T 190.031226078636 283.46456 L 190.071249419907 283.46456 Q 190.071249419907 230.314955 349.470960902645 194.881885 T 508.870672385382 106.29921 Z"
     stroke="#cccccc"
     fill="#cccccc"
     style="stroke-width: 0.5px;"
     id="path30" />
  <path
     d="M 508.78300768406 106.29921 Q 508.78300768406 159.448815 349.442498110175 194.881885 T 190.101988536289 283.46456 L 190.117164673128 283.46456 Q 190.117164673128 230.314955 349.457723520185 194.881885 T 508.798282367242 106.29921 Z"
     stroke="#cccccc"
     fill="#cccccc"
     style="stroke-width: 0.5px;"
     id="path31" />
  <path
     d="M 664.38686416843 106.29921 Q 664.38686416843 159.448815 428.091299423674 194.881885 T 191.795734678918 283.46456 L 191.822783911049 283.46456 Q 191.822783911049 230.314955 428.12198559555 194.881885 T 664.421187280051 106.29921 Z"
     stroke="#cccccc"
     fill="#cccccc"
     style="stroke-width: 0.5px;"
     id="path32" />
  <path
     d="M 577.27576528571 106.29921 Q 577.27576528571 159.448815 384.930344418694 194.881885 T 192.584923551679 283.46456 L 192.692614608974 283.46456 Q 192.692614608974 230.314955 385.001980460695 194.881885 T 577.311346312417 106.29921 Z"
     stroke="#cccccc"
     fill="#cccccc"
     style="stroke-width: 0.5px;"
     id="path33" />
  <path
     d="M 229.309227735557 106.29921 Q 229.309227735557 159.448815 211.023566349 194.881885 T 192.737904962442 283.46456 L 192.767453793582 283.46456 Q 192.767453793582 230.314955 211.053211117903 194.881885 T 229.338968442223 106.29921 Z"
     stroke="#cccccc"
     fill="#cccccc"
     style="stroke-width: 0.5px;"
     id="path34" />
  <path
     d="M 657.96604626656 106.29921 Q 657.96604626656 159.448815 425.792842389675 194.881885 T 193.61963851279 283.46456 L 193.639278219288 283.46456 Q 193.639278219288 230.314955 425.894220490939 194.881885 T 658.149162762591 106.29921 Z"
     stroke="#cccccc"
     fill="#cccccc"
     style="stroke-width: 0.5px;"
     id="path35" />
  <path
     d="M 327.285598120403 106.29921 Q 327.285598120403 159.448815 260.571051698203 194.881885 T 193.856505276003 283.46456 L 193.86712857179 283.46456 Q 193.86712857179 230.314955 260.580047240276 194.881885 T 327.292965908762 106.29921 Z"
     stroke="#cccccc"
     fill="#cccccc"
     style="stroke-width: 0.5px;"
     id="path36" />
  <path
     d="M 387.066335342862 106.29921 Q 387.066335342862 159.448815 290.675984102918 194.881885 T 194.285632862975 283.46456 L 194.378207297693 283.46456 Q 194.378207297693 230.314955 290.9246908228 194.881885 T 387.471174347907 106.29921 Z"
     stroke="#cccccc"
     fill="#cccccc"
     style="stroke-width: 0.5px;"
     id="path37" />
  <path
     d="M 298.771238861011 106.29921 Q 298.771238861011 159.448815 246.9174508363 194.881885 T 195.063662811589 283.46456 L 195.12195703133 283.46456 Q 195.12195703133 230.314955 246.975934322988 194.881885 T 298.829911614646 106.29921 Z"
     stroke="#cccccc"
     fill="#cccccc"
     style="stroke-width: 0.5px;"
     id="path38" />
  <path
     d="M 556.020744134169 106.29921 Q 556.020744134169 159.448815 375.57221353955 194.881885 T 195.123682944931 283.46456 L 195.192570703328 283.46456 Q 195.192570703328 230.314955 375.625031964106 194.881885 T 556.057493224884 106.29921 Z"
     stroke="#cccccc"
     fill="#cccccc"
     style="stroke-width: 0.5px;"
     id="path39" />
  <path
     d="M 196.955412131359 106.29921 Q 196.955412131359 159.448815 198.038631602549 194.881885 T 199.121851073739 283.46456 L 199.227131803419 283.46456 Q 199.227131803419 230.314955 198.097561542816 194.881885 T 196.967991282214 106.29921 Z"
     stroke="#cccccc"
     fill="#cccccc"
     style="stroke-width: 0.5px;"
     id="path40" />
  <path
     d="M 471.847535884199 106.29921 Q 471.847535884199 159.448815 336.196245996802 194.881885 T 200.544956109405 283.46456 L 200.585098479201 283.46456 Q 200.585098479201 230.314955 336.223505267904 194.881885 T 471.861912056606 106.29921 Z"
     stroke="#cccccc"
     fill="#cccccc"
     style="stroke-width: 0.5px;"
     id="path41" />
  <path
     d="M 213.479474546721 106.29921 Q 213.479474546721 159.448815 208.565716112021 194.881885 T 203.651957677321 283.46456 L 203.668651427844 283.46456 Q 203.668651427844 230.314955 208.589831851391 194.881885 T 213.511012274938 106.29921 Z"
     stroke="#cccccc"
     fill="#cccccc"
     style="stroke-width: 0.5px;"
     id="path42" />
  <path
     d="M 490.399387367889 106.29921 Q 490.399387367889 159.448815 348.81575737703 194.881885 T 207.232127386172 283.46456 L 207.251052921524 283.46456 Q 207.251052921524 230.314955 348.835193614314 194.881885 T 490.419334307103 106.29921 Z"
     stroke="#cccccc"
     fill="#cccccc"
     style="stroke-width: 0.5px;"
     id="path43" />
  <path
     d="M 505.880069120474 106.29921 Q 505.880069120474 159.448815 358.31356929211 194.881885 T 210.747069463747 283.46456 L 210.777064651852 283.46456 Q 210.777064651852 230.314955 358.342673505337 194.881885 T 505.908282358822 106.29921 Z"
     stroke="#cccccc"
     fill="#cccccc"
     style="stroke-width: 0.5px;"
     id="path44" />
  <path
     d="M 410.734876238617 106.29921 Q 410.734876238617 159.448815 311.512352081005 194.881885 T 212.289827923393 283.46456 L 212.307057302275 283.46456 Q 212.307057302275 230.314955 311.526357835099 194.881885 T 410.745658367922 106.29921 Z"
     stroke="#cccccc"
     fill="#cccccc"
     style="stroke-width: 0.5px;"
     id="path45" />
  <path
     d="M 258.8327942979 106.29921 Q 258.8327942979 159.448815 237.450576482885 194.881885 T 216.06835866787 283.46456 L 216.100317826625 283.46456 Q 216.100317826625 230.314955 237.482534578886 194.881885 T 258.864751331146 106.29921 Z"
     stroke="#cccccc"
     fill="#cccccc"
     style="stroke-width: 0.5px;"
     id="path46" />
  <path
     d="M 455.045983391028 106.29921 Q 455.045983391028 159.448815 340.049322412367 194.881885 T 225.052661433707 283.46456 L 225.121578949235 283.46456 Q 225.121578949235 230.314955 340.223409744632 194.881885 T 455.325240540029 106.29921 Z"
     stroke="#cccccc"
     fill="#cccccc"
     style="stroke-width: 0.5px;"
     id="path47" />
  <path
     d="M 291.60510627093 106.29921 Q 291.60510627093 159.448815 259.89235327518 194.881885 T 228.17960027943 283.46456 L 228.207869553934 283.46456 Q 228.207869553934 230.314955 259.920909010378 194.881885 T 291.633948466821 106.29921 Z"
     stroke="#cccccc"
     fill="#cccccc"
     style="stroke-width: 0.5px;"
     id="path48" />
  <path
     d="M 225.610088823512 106.29921 Q 225.610088823512 159.448815 229.246788675948 194.881885 T 232.883488528384 283.46456 L 232.973414578438 283.46456 Q 232.973414578438 230.314955 229.31421447036 194.881885 T 225.655014362283 106.29921 Z"
     stroke="#cccccc"
     fill="#cccccc"
     style="stroke-width: 0.5px;"
     id="path49" />
  <path
     d="M 390.090153556101 106.29921 Q 390.090153556101 159.448815 312.389548248551 194.881885 T 234.688942941001 283.46456 L 234.71736100116 283.46456 Q 234.71736100116 230.314955 312.424018696616 194.881885 T 390.130676392072 106.29921 Z"
     stroke="#cccccc"
     fill="#cccccc"
     style="stroke-width: 0.5px;"
     id="path50" />
  <path
     d="M 454.967723102489 106.29921 Q 454.967723102489 159.448815 344.930504131229 194.881885 T 234.893285159969 283.46456 L 234.915513736868 283.46456 Q 234.915513736868 230.314955 344.952804878833 194.881885 T 454.990096020797 106.29921 Z"
     stroke="#cccccc"
     fill="#cccccc"
     style="stroke-width: 0.5px;"
     id="path51" />
  <path
     d="M 567.541599048401 106.29921 Q 567.541599048401 159.448815 408.636281719379 194.881885 T 249.730964390357 283.46456 L 249.78452722626 283.46456 Q 249.78452722626 230.314955 408.701788951751 194.881885 T 567.619050677242 106.29921 Z"
     stroke="#cccccc"
     fill="#cccccc"
     style="stroke-width: 0.5px;"
     id="path52" />
  <path
     d="M 646.931555235063 106.29921 Q 646.931555235063 159.448815 448.516959189071 194.881885 T 250.102363143079 283.46456 L 250.135572101338 283.46456 Q 250.135572101338 230.314955 448.550365819701 194.881885 T 646.965159538064 106.29921 Z"
     stroke="#cccccc"
     fill="#cccccc"
     style="stroke-width: 0.5px;"
     id="path53" />
  <rect
     x="124.015745"
     y="88.582675"
     rx="2"
     ry="2"
     width="549.212585"
     height="17.71654"
     style="fill:#f7f7f7;stroke:black;stroke-width:0.5"
     id="rect53" />
  <rect
     x="124.015745"
     y="283.46456"
     rx="2"
     ry="2"
     width="128.941368511025"
     height="17.71654"
     style="fill:#f7f7f7;stroke:black;stroke-width:0.5"
     id="rect54" />
  <rect
     x="124.015745"
     y="91.582675"
     rx="2"
     ry="2"
     width="549.212585"
     height="11.71654"
     style="fill:#969696;stroke:#969696;stroke-width:0.5"
     id="rect56" />
  <rect
     x="124.015745"
     y="286.46456"
     rx="2"
     ry="2"
     width="128.941368511025"
     height="11.71654"
     style="fill:#969696;stroke:#969696;stroke-width:0.5"
     id="rect57" />
</svg>
